HIERARCHY
ROOT Hips
{
	OFFSET 0.00000 0.00000 0.00000
	CHANNELS 6 Xposition Yposition Zposition Zrotation Yrotation Xrotation 
	JOINT LHipJoint
	{
		OFFSET 0 0 0
		CHANNELS 3 Zrotation Yrotation Xrotation
		JOINT LeftUpLeg
		{
			OFFSET 1.43652 -1.81092 0.91346
			CHANNELS 3 Zrotation Yrotation Xrotation
			JOINT LeftLeg
			{
				OFFSET 2.45984 -6.75837 0.00000
				CHANNELS 3 Zrotation Yrotation Xrotation
				JOINT LeftFoot
				{
					OFFSET 2.63718 -7.24559 0.00000
					CHANNELS 3 Zrotation Yrotation Xrotation
					JOINT LeftToeBase
					{
						OFFSET 0.19690 -0.54098 2.12239
						CHANNELS 3 Zrotation Yrotation Xrotation
						End Site
						{
							OFFSET 0.00000 -0.00000 1.10116
						}
					}
				}
			}
		}
	}
	JOINT RHipJoint
	{
		OFFSET 0 0 0
		CHANNELS 3 Zrotation Yrotation Xrotation
		JOINT RightUpLeg
		{
			OFFSET -1.35116 -1.81092 0.91345
			CHANNELS 3 Zrotation Yrotation Xrotation
			JOINT RightLeg
			{
				OFFSET -2.55576 -7.02189 0.00000
				CHANNELS 3 Zrotation Yrotation Xrotation
				JOINT RightFoot
				{
					OFFSET -2.61938 -7.19669 0.00000
					CHANNELS 3 Zrotation Yrotation Xrotation
					JOINT RightToeBase
					{
						OFFSET -0.32509 -0.89318 2.23646
						CHANNELS 3 Zrotation Yrotation Xrotation
						End Site
						{
							OFFSET -0.00000 -0.00000 1.19625
						}
					}
				}
			}
		}
	}
	JOINT LowerBack
	{
		OFFSET 0 0 0
		CHANNELS 3 Zrotation Yrotation Xrotation
		JOINT Spine
		{
			OFFSET 0.05193 2.08077 -0.11958
			CHANNELS 3 Zrotation Yrotation Xrotation
			JOINT Spine1
			{
				OFFSET 0.04960 2.08447 0.01967
				CHANNELS 3 Zrotation Yrotation Xrotation
				JOINT Neck
				{
					OFFSET 0 0 0
					CHANNELS 3 Zrotation Yrotation Xrotation
					JOINT Neck1
					{
						OFFSET -0.10699 1.82066 0.27584
						CHANNELS 3 Zrotation Yrotation Xrotation
						JOINT Head
						{
							OFFSET 0.14949 1.84747 -0.32279
							CHANNELS 3 Zrotation Yrotation Xrotation
							End Site
							{
								OFFSET 0.04969 1.88916 -0.14562
							}
						}
					}
				}
				JOINT LeftShoulder
				{
					OFFSET 0 0 0
					CHANNELS 3 Zrotation Yrotation Xrotation
					JOINT LeftArm
					{
						OFFSET 3.73629 1.27211 -0.12847
						CHANNELS 3 Zrotation Yrotation Xrotation
						JOINT LeftForeArm
						{
							OFFSET 5.10995 -0.00000 0.00000
							CHANNELS 3 Zrotation Yrotation Xrotation
							JOINT LeftHand
							{
								OFFSET 3.21207 -0.00000 0.00000
								CHANNELS 3 Zrotation Yrotation Xrotation
								JOINT LeftFingerBase
								{
									OFFSET 0 0 0
									CHANNELS 3 Zrotation Yrotation Xrotation
									JOINT LeftHandIndex1
									{
										OFFSET 0.63349 -0.00000 0.00000
										CHANNELS 3 Zrotation Yrotation Xrotation
										End Site
										{
											OFFSET 0.51074 -0.00000 0.00000
										}
									}
								}
								JOINT LThumb
								{
									OFFSET 0 0 0
									CHANNELS 3 Zrotation Yrotation Xrotation
									End Site
									{
										OFFSET 0.51853 -0.00000 0.51853
									}
								}
							}
						}
					}
				}
				JOINT RightShoulder
				{
					OFFSET 0 0 0
					CHANNELS 3 Zrotation Yrotation Xrotation
					JOINT RightArm
					{
						OFFSET -3.70251 1.29541 -0.35354
						CHANNELS 3 Zrotation Yrotation Xrotation
						JOINT RightForeArm
						{
							OFFSET -5.25109 -0.00000 0.00000
							CHANNELS 3 Zrotation Yrotation Xrotation
							JOINT RightHand
							{
								OFFSET -3.28364 -0.00000 0.00000
								CHANNELS 3 Zrotation Yrotation Xrotation
								JOINT RightFingerBase
								{
									OFFSET 0 0 0
									CHANNELS 3 Zrotation Yrotation Xrotation
									JOINT RightHandIndex1
									{
										OFFSET -0.59974 -0.00000 0.00000
										CHANNELS 3 Zrotation Yrotation Xrotation
										End Site
										{
											OFFSET -0.48353 -0.00000 0.00000
										}
									}
								}
								JOINT RThumb
								{
									OFFSET 0 0 0
									CHANNELS 3 Zrotation Yrotation Xrotation
									End Site
									{
										OFFSET -0.49091 -0.00000 0.49091
									}
								}
							}
						}
					}
				}
			}
		}
	}
}
MOTION
Frames: 7
Frame Time: 0.0454545
0.00 0.00 0.00 0 0 0 0 0 0 -21 0 0 0 0 0 0 0 0 0 0 0 0 0 0 21 0 0 0 0 0 0 0 0 0 0 0 0 0 0 0 0 0 0 0 0 0 0 -16 0 0 21 0 0 11 0 0 0 -8 0 0 0 0 0 0 0 0 0 0 0 0 0 0 0 0 0 0 0 0 8 0 0 0 0 0 0 0 0 0 0 0 0 0 0 0 0 0
0.00 0.00 0.00 -1.4351 -16.4733 12.0693 0.0000 0.0000 0.0000 -15.1130 -5.1795 -20.9435 2.5712 9.9662 28.8673 0.2076 8.9446 -15.9921 0.1359 -2.3761 -6.5463 0.0000 0.0000 0.0000 16.3454 9.3550 -23.2488 -3.9849 -12.1403 36.2300 -1.3855 -5.7166 -24.9539 -0.0355 -1.2166 3.3449 -0.7943 0.6579 3.7547 2.4460 0.8924 -0.0064 2.9128 0.4651 -2.1635 -11.7249 -6.7388 -14.0287 11.1450 -8.5431 12.7946 4.6297 -3.7885 7.2219 -0.0000 -0.0000 0.0000 -88.5800 -3.2002 57.7393 45.6092 -51.0634 -22.7116 -0.0000 0.0000 -38.2212 17.2671 32.8870 9.5800 -7.1250 0.0000 -0.0000 -18.5276 63.1488 -8.3078 -0.0000 -0.0000 0.0000 85.9284 1.6034 23.0620 -11.8586 19.5923 -2.0546 0.0000 0.0000 11.1262 -31.5897 7.0520 -4.3175 7.1250 -0.0000 -0.0000 -3.4964 -21.7227 -1.9576
0.00 0.00 0.00 -2.2673 -17.5409 10.6215 0.0000 0.0000 0.0000 -10.5378 -4.2098 -27.0094 5.4664 13.8905 42.8005 -0.0175 11.3099 -15.8453 0.4630 -4.3648 -12.1054 0.0000 0.0000 0.0000 20.4929 9.9991 -23.1832 -5.0505 -13.4405 41.0406 -2.0959 -0.6412 -27.6380 -0.1395 -2.4074 6.6330 -0.3203 1.3438 6.2424 2.0389 1.8090 1.3502 2.1338 0.9040 -2.1832 -12.4280 -6.4560 -14.3216 13.2907 -8.3750 13.0474 5.4952 -3.5599 7.4699 0.0000 -0.0000 0.0000 -91.2504 -20.5047 63.7057 29.2374 -40.2307 -10.9137 -0.0000 0.0000 -37.0666 19.9280 32.5330 11.0327 -7.1250 0.0000 -0.0000 -15.2101 63.5128 -6.9105 0.0000 -0.0000 0.0000 87.2064 23.7008 33.5830 -3.9118 6.7389 -0.2304 0.0000 0.0000 25.2728 -27.0572 3.0268 -1.5449 7.1250 -0.0000 -0.0000 -0.3446 -26.5818 -0.1540
0.00 0.00 0.00 -4.3423 -20.2211 9.0283 0.0000 0.0000 0.0000 -8.0821 -3.4377 -34.0270 9.8392 17.3184 58.9496 -0.3226 13.1006 -13.8319 0.0019 -0.2793 -0.7675 0.0000 0.0000 0.0000 23.8112 9.1846 -20.1495 -5.0351 -13.4232 40.9742 -2.1977 2.7999 -27.3289 -0.1823 -2.7499 7.5831 0.8620 0.7690 6.7058 2.2131 1.1374 1.1845 1.6970 0.5621 -2.5658 -11.1002 -4.6200 -12.8465 13.9542 -6.6190 15.2035 5.7805 -2.6357 7.6333 0.0000 -0.0000 0.0000 -92.1761 -29.5010 62.4908 24.9050 -36.1067 -8.2339 -0.0000 0.0000 -34.5372 22.0818 30.9880 11.7979 -7.1250 0.0000 -0.0000 -11.5517 62.5644 -4.9651 0.0000 -0.0000 0.0000 81.7415 39.5358 63.4146 -9.9150 16.6065 -1.4506 0.0000 0.0000 4.8961 -23.5135 5.0210 -2.1807 7.1250 -0.0000 -0.0000 2.3616 -24.5070 1.1702
0.00 0.00 0.00 -5.7149 -26.1155 7.3423 0.0000 0.0000 0.0000 -9.4168 2.1762 -41.0240 11.9567 18.3723 65.8516 0.5802 4.6377 -16.8268 0.2570 -3.2618 -9.0086 0.0000 0.0000 0.0000 25.6506 8.5998 -15.9129 -5.0273 -13.4145 40.9404 -2.2828 7.0782 -27.2430 -0.1783 -2.7200 7.5001 1.7131 -0.0364 7.0030 2.2651 0.1468 0.7957 1.3622 0.0590 -3.1072 -9.1005 -1.6469 -10.4712 14.2127 -3.4683 18.2286 5.9532 -1.0531 7.6999 0.0000 -0.0000 0.0000 -86.5344 -40.9118 52.1676 18.6500 -28.9814 -4.8601 -0.0000 0.0000 -24.4040 21.1617 27.8958 10.2658 -7.1250 0.0000 -0.0000 -10.6569 59.2444 -3.7347 0.0000 -0.0000 0.0000 65.5335 66.4460 71.8669 -20.7326 31.5149 -5.9095 0.0000 -0.0000 -6.5106 -21.2243 6.5513 -2.5371 7.1250 -0.0000 -0.0000 4.0662 -22.9610 2.1631
0.00 0.00 0.00 -6.3035 -27.3905 7.2671 0.0000 0.0000 0.0000 -10.1376 4.1844 -43.6107 11.3679 18.1105 63.9706 0.6947 1.6428 -16.4228 0.5209 -4.6255 -12.8433 0.0000 0.0000 0.0000 26.1885 6.8731 -14.9023 -4.9067 -13.2779 40.4181 -2.2884 8.7045 -27.1982 -0.1615 -2.5893 7.1374 2.2867 -0.7598 7.1650 2.4595 -0.7539 0.5940 1.3332 -0.3973 -3.4010 -8.3194 -0.5587 -9.7773 13.9101 -2.1990 19.2398 5.8581 -0.4393 7.7208 0.0000 -0.0000 0.0000 -79.9581 -44.6663 45.5816 16.6696 -26.4202 -3.9392 -0.0000 0.0000 -19.7013 21.2438 25.9440 9.6524 -7.1250 0.0000 -0.0000 -9.5575 57.2881 -2.8945 0.0000 -0.0000 0.0000 40.4815 75.3627 50.9335 -26.2600 37.4643 -9.0454 0.0000 -0.0000 -9.3351 -22.9545 5.9925 -2.5318 7.1250 -0.0000 -0.0000 2.7862 -23.4778 1.4472
0.00 0.00 0.00 -6.6106 -28.2983 7.2977 0.0000 0.0000 0.0000 -10.8091 5.8977 -45.4911 10.6616 17.7655 61.6776 0.6727 0.1477 -15.5538 0.6080 -4.9909 -13.8825 0.0000 0.0000 0.0000 26.3923 5.5282 -14.1012 -4.7689 -13.1188 39.8147 -2.2957 9.6855 -27.2352 -0.1499 -2.4950 6.8759 2.6084 -1.2405 7.2890 2.5467 -1.3561 0.4759 1.3092 -0.7022 -3.5948 -7.5049 0.1463 -9.7733 13.5629 -1.4052 20.2086 5.7010 -0.0268 7.9327 -0.0000 -0.0000 0.0000 -73.3097 -46.7174 40.0955 15.2925 -24.5520 -3.3465 -0.0000 0.0000 -15.1306 21.3308 24.4441 9.1792 -7.1250 0.0000 -0.0000 -8.7862 55.7754 -2.3360 -0.0000 -0.0000 0.0000 3.4667 77.2131 15.2740 -30.6186 41.4178 -11.8168 0.0000 -0.0000 -11.7080 -25.3624 5.0337 -2.3817 7.1250 -0.0000 -0.0000 0.9805 -24.4124 0.4877
